<?xml version="1.0" standalone="no"?>
<!DOCTYPE svg PUBLIC "-//W3C//DTD SVG 20010904//EN"
 "http://www.w3.org/TR/2001/REC-SVG-20010904/DTD/svg10.dtd">
<svg version="1.0" xmlns="http://www.w3.org/2000/svg"
 width="589.000000pt" height="388.000000pt" viewBox="0 0 589.000000 388.000000"
 preserveAspectRatio="xMidYMid meet">

<g transform="translate(0.000000,388.000000) scale(0.100000,-0.100000)"
fill="#000000" stroke="none">
<path d="M1083 3223 l-23 -15 83 -90 c45 -49 137 -151 205 -226 68 -76 128
-139 133 -141 6 -2 4 5 -5 15 -13 16 -205 268 -324 427 -20 26 -39 47 -42 46
-3 0 -15 -7 -27 -16z"/>
<path d="M4650 3064 l-105 -107 115 90 c107 84 130 111 105 120 -6 2 -57 -45
-115 -103z"/>
<path d="M2083 3134 c-62 -8 -147 -19 -190 -27 l-78 -13 -3 -394 c-1 -217 0
-405 3 -417 3 -13 12 -23 20 -23 9 0 15 -9 15 -21 0 -20 4 -21 48 -16 33 5 53
2 66 -8 11 -8 25 -15 30 -15 6 0 3 5 -6 11 -10 5 -18 15 -18 20 0 6 4 8 9 5 5
-3 31 -2 57 3 38 7 52 6 65 -5 8 -8 22 -14 29 -14 9 0 8 4 -5 14 -16 11 -10
14 50 18 51 5 72 2 82 -8 18 -18 29 -18 14 0 -9 11 -5 15 19 20 26 5 30 9 24
30 -5 21 -3 24 15 19 12 -3 21 -13 21 -24 0 -13 7 -19 23 -19 13 0 29 -6 36
-12 10 -11 11 -10 6 5 -8 18 9 24 20 7 3 -5 11 -10 16 -10 6 0 7 5 4 10 -3 6
1 10 10 10 10 0 13 -5 9 -12 -4 -8 -3 -10 2 -5 11 11 13 58 2 51 -4 -3 -8 4
-8 16 0 14 4 19 13 14 9 -5 9 -4 0 6 -7 7 -8 22 -3 39 4 16 3 35 -2 46 -7 11
-7 15 -1 12 6 -4 9 19 7 61 l-3 67 25 -40 c14 -22 50 -84 80 -137 l56 -98 42
0 c23 0 48 -6 55 -12 11 -10 13 -10 7 0 -4 7 -1 12 8 12 16 0 20 16 16 54 -1
11 3 15 9 12 13 -9 13 -9 2 32 -6 20 -6 32 0 32 5 0 9 5 9 11 0 5 -4 7 -10 4
-5 -3 -10 -1 -10 4 0 6 5 11 10 11 6 0 10 5 10 11 0 5 -4 8 -8 5 -5 -3 -9 8
-9 24 0 17 4 30 9 30 5 0 6 6 2 12 -12 19 -12 48 0 48 7 0 7 3 1 8 -13 9 -20
46 -7 38 5 -3 7 5 6 17 -1 12 -3 22 -4 22 -1 0 -3 32 -4 71 -2 77 9 88 32 34
8 -17 21 -30 30 -30 13 0 12 3 -4 15 -15 11 -16 14 -3 15 8 0 20 -5 27 -12 9
-9 12 -9 12 0 0 7 7 12 15 12 8 0 15 -4 15 -10 0 -5 -6 -10 -12 -10 -10 0 -9
-3 1 -9 11 -7 13 -47 9 -210 -3 -187 -2 -201 14 -201 11 0 18 -7 18 -19 0 -13
9 -21 28 -25 39 -7 75 -1 80 12 2 7 8 9 14 6 5 -3 4 4 -4 15 -11 18 -11 23 2
31 10 6 11 10 3 10 -7 0 -13 9 -13 21 0 11 5 17 10 14 6 -3 10 -1 10 4 0 6 -4
11 -10 11 -5 0 -10 7 -10 15 0 8 5 15 11 15 8 0 7 6 -2 17 -11 13 -11 17 -2
20 10 4 10 10 1 26 -8 16 -8 22 1 25 9 3 9 7 0 19 -9 11 -10 16 -1 22 7 4 8
12 2 21 -13 20 -12 33 0 25 14 -9 12 9 -2 23 -10 10 -10 15 -1 20 6 4 9 25 7
50 -2 30 0 42 9 41 6 -1 21 -1 32 0 17 1 18 3 5 11 -13 8 -12 10 3 10 9 0 17
-4 17 -10 0 -5 5 -10 11 -10 5 0 7 5 4 10 -3 6 -1 10 6 10 9 0 10 -55 4 -231
-4 -128 -3 -234 2 -238 4 -3 13 -15 19 -25 6 -11 16 -22 24 -24 7 -3 10 0 6 7
-4 6 -1 11 8 11 8 0 17 -6 19 -12 4 -10 6 -10 6 0 1 18 22 15 37 -5 13 -17 14
-17 8 2 -6 16 -5 18 7 8 7 -7 17 -13 22 -13 6 0 5 5 0 13 -14 17 -13 78 1 70
6 -4 4 2 -4 12 -11 14 -12 19 -2 22 6 3 9 10 5 16 -12 18 -10 57 2 57 6 0 7 3
0 8 -15 11 -14 92 1 92 17 0 76 -80 142 -191 49 -82 91 -135 76 -95 -7 17 11
23 21 6 3 -5 11 -10 17 -10 6 0 5 6 -3 16 -10 13 -10 17 2 25 19 12 29 11 29
-2 0 -5 -4 -7 -10 -4 -5 3 -7 0 -4 -8 3 -9 13 -13 25 -10 14 4 19 0 19 -16 0
-12 6 -21 15 -21 8 0 13 -6 11 -12 -1 -7 -1 -10 1 -5 7 12 25 8 47 -10 18 -16
19 -16 8 -1 -12 15 -9 16 33 14 26 -2 52 -9 58 -15 6 -6 16 -11 22 -11 5 0 3
5 -5 10 -12 8 -11 10 8 10 12 0 25 -7 28 -15 4 -8 10 -15 15 -15 4 0 5 7 2 17
-4 10 -2 14 4 10 17 -11 103 -15 103 -6 0 5 -4 9 -10 9 -5 0 -10 8 -10 18 0
15 2 15 11 2 8 -11 9 5 5 59 -4 40 -9 77 -11 81 -3 4 -41 11 -84 15 -79 7
-127 27 -105 42 6 5 10 18 9 31 -2 25 5 28 23 10 7 -7 12 -8 12 -2 0 7 16 8
48 3 71 -12 82 -11 76 6 -4 9 -1 15 7 15 10 0 10 3 1 12 -14 14 -16 42 -2 33
6 -3 10 -2 10 4 0 5 -4 13 -10 16 -5 3 -10 19 -10 35 0 32 3 30 -95 47 -45 7
-50 11 -51 34 -1 26 -1 26 70 23 39 -2 72 -8 74 -14 2 -5 8 -10 13 -10 6 0 7
6 2 13 -4 6 5 4 20 -6 15 -9 27 -13 27 -8 0 5 -5 11 -12 13 -7 3 -8 9 -3 18
12 20 16 90 4 90 -5 0 -7 11 -3 24 3 13 1 27 -5 30 -14 9 -233 36 -287 36 -38
0 -42 -2 -48 -31 -3 -17 -6 -46 -6 -63 -1 -28 -4 -25 -33 34 -29 57 -38 68
-89 93 -72 37 -163 45 -263 23 -61 -13 -71 -13 -81 -1 -9 12 -47 15 -203 15
l-191 0 -1 -37 -2 -38 -6 35 c-6 33 -8 35 -50 38 -25 2 -56 1 -69 -3 l-25 -6
6 -140 c4 -112 3 -138 -8 -129 -7 5 -40 64 -74 130 l-62 120 -68 0 -69 0 -6
-122 c-3 -68 -9 -185 -12 -260 -4 -76 -10 -138 -15 -138 -5 0 -9 14 -9 31 l0
32 -87 -7 c-49 -4 -117 -9 -153 -13 -36 -3 -62 -2 -58 2 4 5 2 15 -5 23 -9 12
-9 16 1 19 6 3 9 10 5 16 -11 18 -14 87 -3 87 5 0 12 -4 15 -10 3 -5 12 -10
18 -9 9 0 9 2 0 6 -7 2 -13 9 -13 14 0 6 4 8 8 5 4 -3 27 0 51 5 32 7 47 6 59
-3 12 -10 14 -10 8 0 -5 8 -1 12 12 12 28 0 55 33 39 49 -9 10 -8 11 7 5 19
-7 19 -7 3 16 -19 27 -23 55 -7 45 6 -3 10 -2 10 4 0 5 -6 14 -14 18 -8 4 -16
22 -18 38 -2 25 -7 30 -28 28 -14 -1 -58 -4 -98 -7 -70 -6 -72 -5 -62 14 7 14
7 20 0 20 -5 0 -10 7 -10 15 0 10 6 12 18 8 16 -7 16 -6 0 11 -10 9 -18 22
-18 27 0 12 17 12 25 -1 3 -5 12 -10 18 -10 8 0 8 3 -2 9 -10 6 -10 10 -1 16
6 4 19 0 29 -9 10 -9 22 -16 27 -16 5 0 1 7 -9 14 -16 13 -13 15 35 21 35 5
53 4 56 -4 2 -6 8 -11 13 -11 4 0 6 6 4 13 -7 16 93 21 112 5 11 -9 12 -7 7 7
-6 14 -4 16 7 10 11 -6 12 -5 2 6 -16 17 -18 103 -2 93 8 -5 8 -1 0 14 -6 12
-16 24 -21 27 -6 3 -10 17 -10 31 0 29 -12 29 -187 8z m170 -56 c2 -29 3 -55
1 -57 -2 -3 -61 -10 -132 -18 -70 -7 -140 -15 -156 -19 l-29 -6 5 -94 c3 -52
8 -97 10 -100 3 -3 48 1 99 9 52 8 97 12 102 10 4 -2 7 -28 7 -57 l0 -52 -102
-15 -103 -14 4 -120 c2 -66 5 -121 6 -123 2 -2 64 4 139 12 190 22 174 26 175
-43 l1 -59 -63 -6 c-34 -3 -132 -12 -217 -21 -121 -11 -156 -12 -162 -2 -4 6
-8 184 -8 393 l0 382 113 16 c128 19 240 33 278 35 25 1 27 -2 32 -51z m487
-422 l0 -284 -52 -4 c-49 -3 -52 -2 -73 32 -28 44 -125 218 -125 224 0 3 -10
22 -22 43 l-23 38 -5 -180 -5 -180 -48 -3 -49 -3 8 263 c4 145 7 272 8 283 1
17 9 20 56 23 l55 3 35 -68 c63 -123 132 -248 142 -258 6 -7 7 50 3 173 l-8
182 52 0 51 0 0 -284z m402 239 l-4 -45 -57 0 -58 0 -6 -142 c-4 -79 -7 -187
-7 -240 0 -53 -4 -99 -8 -102 -4 -2 -26 -2 -47 1 l-40 5 3 240 3 239 -63 -2
-63 -3 -3 47 -3 47 178 0 178 0 -3 -45z m339 21 c20 -8 50 -28 67 -44 27 -25
32 -37 32 -75 0 -63 -33 -105 -118 -147 -41 -21 -42 -23 -28 -43 44 -64 136
-216 136 -226 0 -6 -18 -20 -40 -31 l-40 -21 -9 24 c-16 43 -123 212 -154 245
-43 45 -57 42 -58 -15 -1 -27 -4 -93 -8 -148 l-6 -100 -45 4 c-25 1 -46 4 -48
6 -8 7 20 551 28 559 35 35 219 43 291 12z m334 -56 c139 -16 135 -15 135 -59
0 -21 -2 -40 -5 -43 -4 -3 -23 -2 -43 2 -20 5 -62 10 -92 12 l-55 3 -5 -67 -5
-67 83 -11 83 -12 -3 -42 c-3 -34 -6 -41 -23 -39 -11 1 -47 5 -81 9 l-61 6 -6
-38 c-4 -22 -7 -58 -7 -80 l0 -42 68 -6 c138 -14 133 -12 130 -65 -3 -42 -5
-46 -28 -44 -14 1 -82 7 -152 14 l-128 13 0 34 c0 45 28 433 36 490 6 49 7 49
159 32z m-735 -90 c0 -5 -7 -7 -15 -4 -8 4 -15 8 -15 10 0 2 7 4 15 4 8 0 15
-4 15 -10z m537 -69 c0 -22 -5 -37 -9 -35 -4 3 -8 0 -8 -5 0 -6 5 -11 11 -11
11 0 6 -145 -7 -229 l-6 -35 -21 35 c-11 19 -33 53 -49 77 -30 46 -34 62 -17
62 6 0 17 7 25 15 20 19 10 19 -20 -1 -16 -10 -26 -12 -31 -5 -7 13 2 31 16
31 6 0 17 6 24 13 37 33 46 38 57 31 7 -4 8 -3 4 5 -4 6 -1 23 8 36 9 13 16
31 16 40 0 8 2 15 4 15 3 0 4 -18 3 -39z"/>
<path d="M2150 3090 l-45 -8 53 3 c44 1 52 -1 52 -16 0 -9 -6 -20 -12 -22 -8
-3 -5 -6 5 -6 14 -1 18 5 15 26 -4 31 -8 32 -68 23z"/>
<path d="M2048 3073 c6 -2 18 -2 25 0 6 3 1 5 -13 5 -14 0 -19 -2 -12 -5z"/>
<path d="M1864 2740 c0 -124 2 -174 3 -112 2 61 2 163 0 225 -1 61 -3 11 -3
-113z"/>
<path d="M2088 2763 c6 -2 18 -2 25 0 6 3 1 5 -13 5 -14 0 -19 -2 -12 -5z"/>
<path d="M2090 2720 c-23 -7 -23 -8 -3 -9 12 -1 25 4 28 9 3 6 5 10 3 9 -2 -1
-14 -5 -28 -9z"/>
<path d="M2118 2403 c17 -2 47 -2 65 0 17 2 3 4 -33 4 -36 0 -50 -2 -32 -4z"/>
<path d="M2231 2388 c-1 -16 -8 -28 -18 -31 -14 -4 -13 -5 4 -6 27 -1 32 7 22
39 l-7 25 -1 -27z"/>
<path d="M2033 2393 c9 -2 23 -2 30 0 6 3 -1 5 -18 5 -16 0 -22 -2 -12 -5z"/>
<path d="M2663 2875 c0 -22 2 -30 4 -17 2 12 2 30 0 40 -3 9 -5 -1 -4 -23z"/>
<path d="M2388 2873 c7 -3 16 -2 19 1 4 3 -2 6 -13 5 -11 0 -14 -3 -6 -6z"/>
<path d="M2363 2475 c0 -44 2 -61 4 -37 2 23 2 59 0 80 -2 20 -4 1 -4 -43z"/>
<path d="M2848 2913 c18 -2 45 -2 60 0 15 2 0 4 -33 4 -33 0 -45 -2 -27 -4z"/>
<path d="M3102 2895 c-11 -12 -10 -15 3 -15 8 0 15 7 15 15 0 18 -2 18 -18 0z"/>
<path d="M2965 2400 c-3 -5 -1 -10 4 -10 6 0 11 5 11 10 0 6 -2 10 -4 10 -3 0
-8 -4 -11 -10z"/>
<path d="M3371 2900 c70 -9 141 -38 159 -67 8 -12 10 -13 7 -3 -10 39 -109 81
-187 79 -39 -1 -36 -3 21 -9z"/>
<path d="M3262 2860 c0 -19 2 -27 5 -17 2 9 2 25 0 35 -3 9 -5 1 -5 -18z"/>
<path d="M3314 2853 c-6 -4 -14 -41 -18 -80 l-7 -73 25 0 c14 0 45 7 68 17 82
31 110 80 69 117 -21 19 -119 32 -137 19z m117 -73 c19 0 8 -16 -18 -27 -79
-34 -83 -34 -83 -7 0 14 4 23 10 19 6 -4 8 -11 5 -16 -4 -5 -2 -9 3 -9 17 0
22 13 9 28 -10 13 -8 14 15 10 17 -3 25 -1 21 5 -4 6 0 8 11 4 10 -4 22 -7 27
-7z"/>
<path d="M3499 2734 c-7 -8 -26 -22 -43 -30 -25 -11 -26 -13 -6 -8 22 5 84 54
68 54 -3 0 -11 -7 -19 -16z"/>
<path d="M3194 2560 c0 -63 1 -89 3 -57 2 31 2 83 0 115 -2 31 -3 5 -3 -58z"/>
<path d="M3460 2454 c0 -6 7 -19 16 -30 14 -18 14 -18 3 6 -14 31 -19 36 -19
24z"/>
<path d="M3682 2735 c0 -16 2 -22 5 -12 2 9 2 23 0 30 -3 6 -5 -1 -5 -18z"/>
<path d="M3642 2370 c0 -19 2 -27 5 -17 2 9 2 25 0 35 -3 9 -5 1 -5 -18z"/>
<path d="M3560 2613 c-13 -15 -12 -16 4 -10 10 4 20 7 22 7 2 0 4 5 4 10 0 15
-13 12 -30 -7z"/>
<path d="M1410 3116 c0 -7 8 -24 18 -37 11 -13 31 -46 47 -72 42 -74 40 -50
-5 41 -37 76 -60 102 -60 68z"/>
<path d="M4374 3032 c-20 -31 -50 -75 -67 -97 -16 -22 7 -2 52 45 44 47 81 88
81 91 0 4 -6 9 -14 12 -9 4 -27 -14 -52 -51z"/>
<path d="M4866 3075 c-27 -21 -10 -38 19 -19 14 9 22 20 19 25 -7 12 -16 11
-38 -6z"/>
<path d="M4694 2987 c-68 -60 -339 -282 -379 -311 -11 -8 -18 -17 -15 -19 3
-3 104 63 226 147 307 210 281 189 265 220 -8 14 -17 26 -20 25 -3 0 -38 -28
-77 -62z"/>
<path d="M655 2970 c-5 -9 50 -50 68 -50 16 0 6 17 -23 38 -33 25 -36 26 -45
12z"/>
<path d="M821 2898 c-17 -28 -24 -22 189 -142 91 -51 191 -107 223 -125 117
-67 49 -11 -164 134 -121 83 -223 151 -227 153 -4 1 -13 -8 -21 -20z"/>
<path d="M2118 2913 c7 -3 16 -2 19 1 4 3 -2 6 -13 5 -11 0 -14 -3 -6 -6z"/>
<path d="M2206 2617 c3 -10 9 -15 12 -12 3 3 0 11 -7 18 -10 9 -11 8 -5 -6z"/>
<path d="M4840 2564 c-96 -36 -209 -77 -250 -92 -84 -29 -85 -30 -78 -37 3 -3
29 1 59 9 74 19 474 129 476 130 7 5 -12 56 -21 55 -6 0 -90 -30 -186 -65z"/>
<path d="M1090 2557 c0 -11 169 -77 197 -77 9 0 -178 89 -189 90 -5 0 -8 -6
-8 -13z"/>
<path d="M748 2369 c-154 -22 -319 -161 -407 -343 -67 -140 -76 -186 -75 -396
1 -227 14 -283 110 -479 60 -123 73 -142 152 -221 69 -68 105 -95 176 -130 87
-44 90 -45 190 -45 77 0 110 4 141 19 39 17 39 18 18 29 -23 10 -31 27 -13 27
5 0 80 -60 166 -132 86 -73 164 -136 174 -140 10 -4 21 -11 25 -17 3 -6 11
-11 17 -11 6 0 1 11 -11 24 -16 17 -19 26 -10 31 7 5 16 1 21 -9 5 -9 14 -16
20 -16 6 0 2 11 -11 23 -19 21 -20 26 -7 36 8 7 19 10 25 7 5 -4 7 3 3 16 -5
22 -5 22 21 5 16 -10 28 -13 32 -7 3 6 -1 10 -9 10 -20 0 -31 19 -18 32 6 6
15 4 25 -6 18 -18 27 -20 27 -7 0 5 -9 13 -21 16 -11 4 -18 12 -16 18 4 13 20
13 52 2 17 -6 16 -4 -4 13 -20 16 -22 22 -12 40 9 17 7 24 -14 40 -14 11 -24
28 -23 39 2 14 -28 45 -107 108 -166 135 -157 124 -143 165 17 47 16 46 33 24
19 -26 19 -9 -1 20 -9 15 -11 26 -5 30 5 4 14 -2 20 -11 9 -16 10 -16 11 -1 0
9 -4 20 -10 23 -5 3 -10 16 -10 28 1 22 1 22 17 2 l16 -20 -8 20 c-4 11 -10
31 -13 45 -5 22 -3 24 11 11 19 -15 24 -2 6 16 -13 13 -1 105 13 97 6 -4 8
-22 5 -40 -3 -19 -2 -32 3 -29 4 3 11 -14 15 -37 4 -24 21 -78 37 -121 23 -61
42 -90 84 -132 50 -50 105 -91 90 -67 -10 16 66 3 84 -14 12 -12 12 -14 0 -14
-7 0 -11 -2 -8 -5 3 -3 13 -3 22 1 12 5 14 10 6 19 -9 10 -3 15 22 20 18 4 38
12 45 17 7 6 19 5 33 -2 12 -6 25 -9 28 -5 3 3 -4 8 -16 12 -27 7 -27 6 1 37
18 19 26 23 35 14 16 -16 15 -28 -3 -28 -8 0 -15 -4 -15 -10 0 -15 16 -12 29
4 9 11 9 19 -1 35 -16 27 -2 40 17 15 8 -10 15 -15 15 -10 0 5 -7 18 -17 28
-18 20 -10 39 9 20 18 -18 28 -14 27 11 0 12 -3 16 -6 10 -8 -20 -23 -15 -23
7 0 24 8 25 38 4 13 -9 29 -13 37 -10 11 4 15 -2 15 -24 0 -26 4 -30 28 -31
15 0 42 -2 60 -3 18 -2 35 1 38 6 3 5 14 2 25 -8 10 -9 19 -13 19 -8 0 5 -9
17 -19 26 -13 11 -18 24 -14 39 6 21 7 21 20 4 7 -11 13 -14 13 -8 0 6 -6 16
-14 22 -9 7 -14 29 -14 52 0 40 11 51 22 23 4 -9 9 -14 13 -10 4 3 -4 17 -17
31 -25 26 -21 47 5 25 8 -7 15 -8 15 -2 0 5 -7 15 -15 22 -8 7 -15 23 -15 36
0 27 15 32 24 9 3 -8 11 -15 18 -15 9 0 9 3 0 12 -19 19 -14 25 18 26 17 0 30
-4 30 -10 0 -5 -7 -8 -15 -4 -8 3 -15 1 -15 -5 0 -6 8 -13 18 -16 16 -4 21
-21 30 -95 6 -50 16 -96 22 -102 5 -5 10 -21 10 -33 0 -22 3 -23 34 -17 28 5
37 2 48 -15 7 -12 19 -21 27 -21 8 0 4 8 -10 20 -22 18 -22 19 -5 20 11 0 30
-10 43 -22 26 -24 32 -18 6 7 -12 13 -13 19 -4 24 9 6 10 23 2 72 -5 35 -15
102 -21 149 -6 47 -14 101 -17 120 -7 39 -10 66 -18 125 -2 22 -7 54 -10 70
-8 46 -17 128 -16 150 0 10 -3 24 -7 30 -5 5 -9 32 -10 60 -2 27 -9 56 -17 65
-7 8 -15 31 -17 50 l-3 35 -104 3 c-57 1 -108 -1 -112 -5 -9 -10 -58 -348 -89
-621 -13 -121 -29 -193 -41 -186 -11 6 -9 94 2 94 5 0 5 7 2 17 -4 11 -3 14 5
9 7 -4 12 -3 12 3 0 5 -4 13 -10 16 -5 3 -10 13 -10 21 0 8 5 12 10 9 6 -3 10
-2 10 4 0 5 -4 13 -10 16 -15 9 -12 27 3 19 10 -6 10 -4 0 7 -15 16 -17 33 -3
24 6 -3 10 -2 10 4 0 5 -4 13 -10 16 -16 10 -11 28 6 21 15 -6 15 -4 1 18 -11
17 -13 26 -5 28 8 3 8 10 -1 26 -10 18 -9 22 4 22 14 0 14 3 -1 25 -10 15 -12
25 -5 25 6 0 11 -5 11 -12 0 -6 3 -9 6 -5 3 3 -1 16 -10 29 -21 30 -22 55 -1
38 14 -11 14 -9 0 16 -17 34 -22 70 -5 44 6 -9 10 -10 10 -3 0 6 -4 15 -10 18
-5 3 -10 14 -10 23 0 15 2 15 11 2 9 -13 10 -12 5 3 -3 9 -9 24 -13 34 -4 11
-3 14 5 9 18 -11 14 5 -5 27 -17 19 -17 20 0 14 21 -8 21 -9 -3 38 -11 22 -20
50 -20 62 0 26 -8 27 -110 16 l-63 -6 7 -231 c9 -323 -9 -473 -60 -493 -58
-22 -97 44 -107 182 -1 17 -6 36 -10 43 -5 7 -4 12 3 12 7 0 5 9 -4 22 -19 26
-21 42 -5 32 8 -4 8 0 0 15 -8 14 -8 21 -1 21 7 0 8 6 0 19 -15 29 -12 35 7
20 17 -13 17 -13 0 13 -21 33 -21 39 -2 32 11 -5 13 -2 9 10 -3 9 -10 16 -15
16 -5 0 -9 5 -9 11 0 5 4 8 9 5 17 -11 21 27 5 52 -12 19 -13 24 -3 20 20 -8
23 56 4 72 -8 7 -15 26 -15 42 0 38 -15 42 -100 28 l-70 -12 0 -69 c0 -44 -4
-68 -10 -64 -5 3 -10 16 -10 28 0 86 -115 338 -198 435 -98 115 -219 162 -364
141z m219 -59 c118 -58 217 -199 264 -376 15 -56 23 -123 26 -230 8 -211 -18
-379 -78 -512 l-28 -63 -68 55 c-37 31 -74 56 -82 56 -11 0 -10 -5 5 -18 69
-62 351 -292 429 -348 l29 -22 -61 -83 c-33 -46 -65 -84 -71 -84 -6 0 -23 11
-39 25 -37 34 -284 242 -304 257 -12 10 -24 8 -60 -10 -24 -12 -71 -25 -104
-28 l-60 -7 70 3 c43 1 85 9 108 21 33 16 39 16 47 4 8 -12 -1 -20 -41 -39
-135 -62 -292 -24 -431 107 -71 66 -116 132 -159 231 -56 130 -72 220 -72 391
0 174 14 242 81 380 37 77 60 109 122 170 156 156 320 197 477 120z m1267
-517 c15 -109 34 -238 42 -288 42 -271 51 -347 40 -350 -6 -2 -30 -6 -53 -8
-49 -6 -45 -15 -63 148 -15 129 -13 125 -73 125 -29 0 -57 -4 -63 -8 -6 -4
-14 -47 -18 -97 -4 -49 -10 -107 -13 -127 l-6 -38 -53 0 c-29 0 -55 4 -58 8
-7 12 95 779 109 820 3 8 31 12 92 12 l89 0 28 -197z m-391 45 c10 -182 8
-417 -4 -505 -18 -132 -70 -222 -153 -265 -54 -28 -149 -22 -198 12 -51 35
-95 105 -113 182 -31 136 -40 401 -19 575 5 41 6 42 55 52 27 6 52 11 54 11 1
0 3 -80 3 -177 -1 -269 31 -435 93 -488 39 -32 64 -32 99 3 50 51 55 88 54
414 l-1 297 46 4 c25 2 53 4 62 5 13 2 17 -17 22 -120z m-323 -33 c0 -8 -2
-15 -4 -15 -2 0 -6 7 -10 15 -3 8 -1 15 4 15 6 0 10 -7 10 -15z m0 -85 c0 -5
-2 -10 -4 -10 -3 0 -8 5 -11 10 -3 6 -1 10 4 10 6 0 11 -4 11 -10z m370 -556
c0 -8 -4 -14 -9 -14 -12 0 -32 26 -25 33 10 9 34 -4 34 -19z m-850 -374 c0 -6
-16 -10 -35 -10 -19 0 -35 -4 -35 -10 0 -25 -210 -3 -227 23 -4 7 0 7 13 2 22
-11 204 -15 204 -5 0 4 10 12 23 17 23 11 57 1 57 -17z"/>
<path d="M981 2245 c19 -14 51 -44 73 -67 38 -43 38 -43 19 -8 -19 35 -95 100
-116 100 -6 0 5 -11 24 -25z"/>
<path d="M470 2069 c-67 -104 -104 -222 -122 -389 -8 -74 -8 -123 -1 -165 l10
-60 2 107 c2 209 35 347 116 491 24 42 42 77 39 77 -2 0 -22 -27 -44 -61z"/>
<path d="M785 2110 c-73 -16 -129 -77 -175 -187 -58 -140 -79 -349 -51 -513
16 -93 69 -208 116 -248 43 -38 97 -55 132 -41 23 8 31 5 59 -22 19 -18 37
-29 41 -25 4 4 -27 41 -70 81 -42 40 -77 77 -77 82 0 8 113 103 123 103 4 0
22 -14 41 -30 41 -36 42 -35 70 67 61 226 61 494 0 616 -45 88 -129 136 -209
117z m110 -120 c10 -11 28 -20 40 -20 54 0 78 -78 79 -250 0 -131 -13 -232
-46 -339 l-20 -63 -33 32 -34 33 -43 -39 c-24 -22 -60 -52 -81 -68 -29 -22
-35 -32 -26 -42 6 -7 8 -18 4 -24 -4 -6 1 -20 11 -31 9 -10 14 -22 10 -26 -10
-11 -56 18 -79 48 -21 29 -59 172 -51 194 3 7 0 23 -6 35 -10 18 -9 21 1 15 9
-6 10 -3 5 11 -5 10 -10 28 -13 39 -4 16 -3 17 6 5 9 -13 11 -13 11 2 0 9 -4
20 -10 23 -15 9 -12 25 6 25 14 0 14 2 0 22 -20 28 -21 44 -1 28 9 -8 15 -9
15 -2 0 6 -5 14 -10 17 -8 5 -8 43 -1 84 1 2 8 -2 16 -9 9 -7 15 -8 15 -2 0 5
-7 12 -15 16 -17 6 -21 36 -4 36 5 0 10 8 9 18 -1 9 1 27 5 40 7 22 9 22 26 6
24 -21 25 -7 2 18 -12 13 -13 22 -6 29 8 8 15 4 27 -12 9 -13 16 -19 16 -15 0
5 -7 18 -17 28 -9 10 -13 21 -9 26 4 4 14 -2 22 -12 7 -11 16 -17 20 -14 3 4
-5 17 -17 29 l-23 23 48 43 c42 37 84 59 122 62 6 1 19 -8 29 -19z"/>
<path d="M862 1984 c10 -10 20 -16 22 -13 3 3 -5 11 -17 18 -21 13 -21 12 -5
-5z"/>
<path d="M810 1981 c0 -13 28 -33 33 -23 3 4 -3 13 -14 20 -10 7 -19 8 -19 3z"/>
<path d="M797 1945 c3 -8 9 -12 14 -9 12 7 11 11 -5 17 -10 4 -13 1 -9 -8z"/>
<path d="M770 1925 c7 -9 15 -13 17 -11 7 7 -7 26 -19 26 -6 0 -6 -6 2 -15z"/>
<path d="M730 1905 c7 -8 17 -15 22 -15 6 0 5 7 -2 15 -7 8 -17 15 -22 15 -6
0 -5 -7 2 -15z"/>
<path d="M665 1770 c3 -5 11 -10 16 -10 6 0 7 5 4 10 -3 6 -11 10 -16 10 -6 0
-7 -4 -4 -10z"/>
<path d="M661 1724 c0 -11 3 -14 6 -6 3 7 2 16 -1 19 -3 4 -6 -2 -5 -13z"/>
<path d="M635 1650 c3 -5 8 -10 11 -10 2 0 4 5 4 10 0 6 -5 10 -11 10 -5 0 -7
-4 -4 -10z"/>
<path d="M366 1949 c-14 -33 -26 -70 -26 -82 1 -12 11 7 24 43 13 36 27 73 31
83 4 9 5 17 2 17 -2 0 -16 -27 -31 -61z"/>
<path d="M1150 1547 c0 -19 -30 -151 -54 -237 -6 -22 -5 -22 4 -7 28 44 75
267 56 267 -3 0 -6 -10 -6 -23z"/>
<path d="M1235 956 c73 -67 165 -139 165 -128 0 9 -31 35 -145 121 l-70 53 50
-46z"/>
<path d="M1303 826 c20 -20 37 -41 37 -47 0 -5 5 -7 10 -4 14 9 7 18 -43 55
l-42 32 38 -36z"/>
<path d="M2055 1940 c-7 -12 2 -12 30 0 19 8 19 9 -2 9 -12 1 -25 -3 -28 -9z"/>
<path d="M2042 1870 c0 -19 2 -27 5 -17 2 9 2 25 0 35 -3 9 -5 1 -5 -18z"/>
<path d="M2102 1757 c-15 -108 -25 -215 -21 -224 4 -7 70 -5 78 3 3 3 -38 296
-43 301 -1 1 -7 -35 -14 -80z m25 -199 c-3 -8 -6 -5 -6 6 -1 11 2 17 5 13 3
-3 4 -12 1 -19z"/>
<path d="M2032 1805 c0 -16 2 -22 5 -12 2 9 2 23 0 30 -3 6 -5 -1 -5 -18z"/>
<path d="M2022 1745 c0 -16 2 -22 5 -12 2 9 2 23 0 30 -3 6 -5 -1 -5 -18z"/>
<path d="M2013 1675 c0 -22 2 -30 4 -17 2 12 2 30 0 40 -3 9 -5 -1 -4 -23z"/>
<path d="M2002 1605 c0 -16 2 -22 5 -12 2 9 2 23 0 30 -3 6 -5 -1 -5 -18z"/>
<path d="M1992 1540 c0 -19 2 -27 5 -17 2 9 2 25 0 35 -3 9 -5 1 -5 -18z"/>
<path d="M2108 1493 c12 -2 32 -2 45 0 12 2 2 4 -23 4 -25 0 -35 -2 -22 -4z"/>
<path d="M1982 1455 c0 -16 2 -22 5 -12 2 9 2 23 0 30 -3 6 -5 -1 -5 -18z"/>
<path d="M1971 1374 c0 -11 3 -14 6 -6 3 7 2 16 -1 19 -3 4 -6 -2 -5 -13z"/>
<path d="M1962 1300 c0 -19 2 -27 5 -17 2 9 2 25 0 35 -3 9 -5 1 -5 -18z"/>
<path d="M2232 1280 c0 -19 2 -27 5 -17 2 9 2 25 0 35 -3 9 -5 1 -5 -18z"/>
<path d="M1952 1220 c0 -14 2 -19 5 -12 2 6 2 18 0 25 -3 6 -5 1 -5 -13z"/>
<path d="M1998 1215 c-3 -14 -1 -25 3 -25 5 0 9 11 9 25 0 14 -2 25 -4 25 -2
0 -6 -11 -8 -25z"/>
<path d="M2242 1210 c0 -19 2 -27 5 -17 2 9 2 25 0 35 -3 9 -5 1 -5 -18z"/>
<path d="M1763 1913 c-10 -3 -12 -51 -11 -196 l3 -192 2 186 c3 181 4 186 26
197 22 11 4 15 -20 5z"/>
<path d="M1385 1699 c-4 -83 -5 -152 -3 -155 3 -2 9 66 14 151 5 85 6 155 3
155 -4 0 -10 -68 -14 -151z"/>
<path d="M1393 1455 c0 -22 2 -30 4 -17 2 12 2 30 0 40 -3 9 -5 -1 -4 -23z"/>
<path d="M1757 1290 c-4 -20 -17 -53 -28 -75 -15 -28 -17 -36 -6 -26 18 15 51
105 44 124 -2 6 -7 -4 -10 -23z"/>
<path d="M1505 1203 c16 -27 45 -51 49 -41 1 2 -14 19 -33 38 l-35 35 19 -32z"/>
<path d="M1647 1108 c-21 -11 -36 -22 -34 -25 7 -6 73 23 81 36 10 15 -2 12
-47 -11z"/>
<path d="M4695 2316 l-200 -21 140 -3 c77 -2 177 0 223 3 72 6 82 9 82 26 0
23 16 23 -245 -5z"/>
<path d="M2667 2279 c7 -7 15 -10 18 -7 3 3 -2 9 -12 12 -14 6 -15 5 -6 -5z"/>
<path d="M3040 2280 c0 -5 5 -10 10 -10 6 0 10 5 10 10 0 6 -4 10 -10 10 -5 0
-10 -4 -10 -10z"/>
<path d="M2300 2250 c0 -6 7 -10 15 -10 8 0 15 2 15 4 0 2 -7 6 -15 10 -8 3
-15 1 -15 -4z"/>
<path d="M2017 2219 c7 -7 15 -10 18 -7 3 3 -2 9 -12 12 -14 6 -15 5 -6 -5z"/>
<path d="M2065 2220 c3 -5 8 -10 11 -10 2 0 4 5 4 10 0 6 -5 10 -11 10 -5 0
-7 -4 -4 -10z"/>
<path d="M3940 2186 c0 -2 7 -6 15 -10 8 -3 15 -1 15 4 0 6 -7 10 -15 10 -8 0
-15 -2 -15 -4z"/>
<path d="M2963 2060 c-89 -16 -117 -32 -118 -66 -1 -16 -2 -119 -3 -229 -2
-118 -6 -194 -11 -185 -5 8 -17 44 -26 80 -61 227 -160 308 -422 344 -23 3
-44 2 -48 -4 -3 -5 -1 -91 5 -192 5 -101 15 -297 22 -437 11 -231 13 -254 30
-259 12 -3 18 -14 18 -34 0 -29 1 -30 38 -23 29 5 42 2 52 -9 7 -9 20 -16 29
-15 11 0 9 3 -6 9 -23 9 -32 30 -13 30 6 0 21 -7 34 -15 24 -16 61 -11 50 7
-4 6 -10 5 -15 -3 -7 -12 -11 -11 -25 2 -15 16 -14 17 15 24 17 3 33 11 36 16
9 13 32 11 48 -5 13 -13 17 -13 33 0 11 9 14 13 7 10 -13 -7 -43 3 -43 14 0
13 33 21 44 10 5 -5 17 -10 25 -10 12 1 11 4 -4 12 -11 6 -22 12 -24 14 -8 7
44 41 56 37 18 -7 16 -23 -3 -23 -8 0 -12 -5 -9 -11 5 -7 14 -4 26 7 18 16 18
18 1 30 -15 12 -15 15 -2 24 8 5 11 10 6 10 -6 0 -5 5 2 12 8 8 15 8 27 -2 8
-7 18 -10 22 -6 4 3 -2 12 -12 20 -17 13 -18 16 -5 42 8 16 17 38 21 49 6 20
6 20 14 1 6 -13 4 -21 -3 -24 -9 -3 -9 -9 -1 -24 10 -18 9 -20 -5 -15 -19 8
-21 -6 -3 -21 7 -6 14 -26 15 -44 1 -18 10 -38 18 -45 10 -7 14 -19 10 -28 -4
-12 0 -18 13 -22 11 -3 22 -11 25 -19 3 -8 11 -14 17 -14 8 0 8 4 -1 15 -10
13 -9 15 9 15 12 0 24 -7 27 -15 4 -8 13 -15 22 -15 13 0 12 3 -4 15 -18 14
-18 14 6 16 14 1 32 0 40 -1 12 -1 13 1 3 11 -16 16 -17 43 -2 33 8 -5 8 -1 0
14 -14 26 -14 45 -1 37 6 -3 10 -2 10 4 0 5 -4 13 -10 16 -5 3 -10 13 -10 21
0 8 5 12 10 9 6 -3 10 -2 10 4 0 5 -4 13 -10 16 -5 3 -10 15 -10 26 0 11 5 17
10 14 6 -3 10 -2 10 4 0 5 -4 13 -10 16 -5 3 -10 13 -10 21 0 8 5 12 10 9 14
-9 12 19 -2 33 -9 9 -9 12 -1 12 8 0 10 15 8 42 l-4 41 55 -54 c66 -64 133
-173 176 -287 26 -68 35 -82 50 -79 11 3 24 -3 33 -16 8 -12 15 -17 15 -11 0
5 -5 15 -11 21 -8 8 -8 13 0 18 6 3 14 -1 17 -9 3 -9 13 -16 22 -16 13 0 13 2
-3 13 -14 11 -15 16 -5 22 8 5 19 -1 31 -16 10 -13 19 -19 19 -12 0 6 -4 15
-10 18 -13 8 -13 25 1 25 6 0 13 -9 16 -20 4 -14 13 -20 32 -19 25 0 25 0 4 9
-13 5 -23 14 -23 19 0 15 52 2 66 -17 12 -15 12 -15 8 5 -5 18 -3 21 15 16 12
-3 21 -11 21 -19 0 -7 5 -16 12 -20 8 -5 9 -2 5 10 -5 13 -3 17 6 13 8 -3 13
3 13 14 0 11 -4 19 -8 19 -4 0 -8 8 -7 18 0 10 3 12 6 5 2 -7 11 -13 19 -13 8
0 14 -10 14 -25 0 -23 4 -25 44 -25 34 0 47 -5 59 -22 l16 -23 -6 24 c-5 19
-3 23 9 18 10 -3 24 3 35 15 10 12 12 18 6 14 -9 -5 -13 1 -13 20 0 24 2 25
17 13 17 -13 17 -13 0 13 -22 35 -23 55 -2 38 9 -8 15 -9 15 -2 0 6 -4 14 -10
17 -5 3 -10 15 -10 27 0 18 2 19 17 7 15 -13 15 -12 4 10 -11 19 -11 25 0 32
10 6 11 9 2 9 -8 0 -13 14 -13 38 0 27 3 33 10 22 9 -13 10 -13 10 1 0 8 -5
20 -12 27 -9 9 -9 12 0 12 8 0 10 9 6 26 -5 19 -4 25 5 20 15 -9 14 7 -1 22
-9 9 -9 15 -1 23 7 7 30 -47 77 -187 37 -109 72 -204 78 -211 6 -7 23 -13 39
-13 16 0 29 -4 29 -8 0 -5 7 -17 16 -28 14 -18 15 -18 4 4 -13 26 -4 28 24 5
12 -10 16 -12 10 -4 -12 13 -7 54 5 47 3 -2 5 14 3 36 -4 32 -2 39 9 33 11 -6
12 -5 2 6 -18 19 -16 29 5 22 14 -5 15 -3 5 8 -18 19 -16 42 2 35 13 -4 13 -2
5 14 -12 23 -13 43 -2 36 5 -3 8 15 7 40 -2 30 2 47 11 51 10 4 11 9 1 25 -8
14 -9 22 -1 25 6 2 8 17 6 33 -3 18 0 30 7 30 7 0 9 9 5 25 -3 14 -2 25 4 25
5 0 7 12 4 26 -3 15 -1 24 4 21 5 -3 9 19 9 49 -1 41 2 53 12 50 10 -4 11 -1
3 14 -13 24 -13 43 0 35 6 -4 8 7 4 27 -4 25 -3 29 5 18 13 -19 14 -14 1 28
-7 28 -7 33 5 28 18 -6 20 5 4 22 -7 6 -12 26 -13 44 l-1 33 -88 9 c-48 5 -89
7 -92 5 -2 -2 -9 -67 -15 -144 -7 -77 -15 -153 -19 -169 -7 -29 -16 -5 -101
276 -11 37 -24 69 -28 72 -4 2 -43 5 -87 7 l-80 4 -7 -60 c-4 -33 -10 -84 -13
-113 -5 -36 -10 -50 -18 -45 -8 5 -8 2 1 -9 7 -9 10 -27 6 -44 -5 -27 -9 -63
-13 -121 0 -13 -6 -23 -12 -23 -6 0 -8 15 -4 43 4 23 7 77 8 120 1 42 5 77 10
77 4 0 3 8 -2 19 -6 10 -7 21 -4 25 12 12 14 54 3 61 -5 3 -10 23 -10 44 l0
38 -52 7 c-29 3 -69 6 -89 6 l-36 0 -8 -82 c-7 -85 -15 -89 -35 -15 -16 56
-63 103 -128 128 -65 25 -221 34 -309 19z m240 -25 c38 -8 84 -24 104 -36 72
-45 92 -122 50 -192 -25 -42 -102 -100 -153 -117 -19 -7 -34 -15 -34 -20 0 -5
20 -37 44 -72 55 -79 115 -199 160 -319 20 -51 34 -93 33 -94 -1 0 -22 -6 -47
-13 -25 -7 -53 -15 -62 -19 -11 -3 -18 0 -18 7 0 27 -75 188 -116 250 -23 36
-72 93 -107 128 l-64 63 -6 -68 c-4 -37 -7 -130 -7 -205 l0 -138 -62 0 -61 0
6 406 c3 224 9 410 14 415 11 11 156 37 213 38 25 0 76 -6 113 -14z m394 -60
c5 -3 -27 -467 -42 -620 -8 -82 -15 -156 -15 -162 0 -9 -18 -13 -55 -13 l-55
0 0 188 c0 103 7 282 15 397 8 116 15 214 15 218 0 6 129 -1 137 -8z m-1054
-30 c117 -40 176 -103 224 -238 21 -59 26 -92 27 -182 1 -100 -2 -115 -25
-166 -35 -74 -96 -134 -174 -170 -62 -30 -179 -58 -191 -46 -6 6 -16 163 -34
537 -6 129 -13 250 -16 269 l-5 34 63 -7 c35 -4 94 -18 131 -31z m1239 10 l47
-6 51 -162 c29 -89 61 -190 71 -224 22 -72 39 -82 39 -24 0 40 30 374 34 378
1 1 33 0 71 -4 l70 -5 -63 -381 c-34 -210 -64 -383 -66 -385 -3 -2 -23 0 -46
5 l-43 8 -34 100 c-18 55 -56 172 -82 260 -27 88 -51 153 -54 145 -3 -8 -14
-125 -25 -259 -12 -134 -23 -246 -26 -248 -3 -3 -31 -2 -64 2 l-58 7 8 56 c4
31 19 165 33 297 33 317 46 428 50 442 2 6 12 10 22 8 10 -2 39 -7 65 -10z
m-364 -200 c-5 -53 -11 -61 -28 -39 -10 11 -11 18 -3 22 6 4 15 20 18 35 11
41 17 32 13 -18z m-17 -62 c11 -14 13 -57 11 -210 -2 -106 -6 -193 -10 -193
-4 0 -22 37 -39 83 -18 45 -55 119 -82 165 -27 45 -45 82 -41 82 22 0 38 -13
33 -27 -5 -13 -3 -14 18 -3 l23 13 -22 8 c-12 5 -22 13 -22 20 0 7 7 8 18 4 9
-4 26 -9 37 -11 17 -4 17 -3 -2 7 -28 15 -29 26 -4 34 10 3 26 14 36 25 22 24
28 25 46 3z m225 -149 c-3 -9 -6 -27 -6 -42 0 -16 -4 -22 -9 -16 -11 12 -2 74
11 74 6 0 7 -7 4 -16z m-13 -137 c-3 -27 -9 -45 -13 -40 -10 11 0 107 10 96 5
-4 6 -30 3 -56z m-16 -89 c-3 -7 -5 -2 -5 12 0 14 2 19 5 13 2 -7 2 -19 0 -25z
m3 -40 c0 -18 -2 -20 -9 -8 -6 8 -7 18 -5 22 9 14 14 9 14 -14z m-13 -75 c-3
-10 -5 -2 -5 17 0 19 2 27 5 18 2 -10 2 -26 0 -35z"/>
<path d="M3040 2000 c-23 -7 -22 -8 10 -8 19 0 49 4 65 8 29 7 28 8 -10 8 -22
0 -51 -4 -65 -8z"/>
<path d="M3158 1993 c6 -2 18 -2 25 0 6 3 1 5 -13 5 -14 0 -19 -2 -12 -5z"/>
<path d="M2925 1980 c-8 -13 5 -13 25 0 13 8 13 10 -2 10 -9 0 -20 -4 -23 -10z"/>
<path d="M3008 1924 c-15 -5 -18 -18 -18 -91 l0 -85 33 7 c157 31 253 104 203
153 -13 13 -38 17 -109 19 -51 1 -100 -1 -109 -3z m182 -79 c0 -11 -113 -57
-130 -52 -11 3 -21 0 -23 -7 -2 -6 -4 3 -5 21 0 25 4 33 21 36 32 6 137 8 137
2z"/>
<path d="M3115 1830 c3 -5 11 -10 16 -10 6 0 7 5 4 10 -3 6 -11 10 -16 10 -6
0 -7 -4 -4 -10z"/>
<path d="M3070 1820 c0 -5 5 -10 11 -10 5 0 7 5 4 10 -3 6 -8 10 -11 10 -2 0
-4 -4 -4 -10z"/>
<path d="M3296 1804 c-10 -14 -38 -38 -64 -55 -52 -33 -46 -40 8 -8 35 21 51
38 71 72 15 27 3 20 -15 -9z"/>
<path d="M2900 1657 c0 -85 -2 -196 -5 -248 -3 -67 -2 -82 4 -54 10 44 15 455
6 455 -3 0 -5 -69 -5 -153z"/>
<path d="M3020 1627 c0 -2 15 -16 33 -33 l32 -29 -29 33 c-28 30 -36 37 -36
29z"/>
<path d="M3095 1540 c10 -11 20 -20 23 -20 3 0 -3 9 -13 20 -10 11 -20 20 -23
20 -3 0 3 -9 13 -20z"/>
<path d="M3291 1375 c0 -5 6 -21 14 -35 8 -14 14 -20 14 -15 0 6 -6 21 -14 35
-8 14 -14 21 -14 15z"/>
<path d="M3341 1255 c1 -19 18 -51 18 -35 0 8 -4 22 -9 30 -5 8 -9 11 -9 5z"/>
<path d="M3498 1933 c7 -3 16 -2 19 1 4 3 -2 6 -13 5 -11 0 -14 -3 -6 -6z"/>
<path d="M3473 1805 c0 -22 2 -30 4 -17 2 12 2 30 0 40 -3 9 -5 -1 -4 -23z"/>
<path d="M3503 1550 c0 -30 2 -43 4 -27 2 15 2 39 0 55 -2 15 -4 2 -4 -28z"/>
<path d="M2411 1868 c1 -79 26 -374 28 -333 1 17 -4 108 -10 203 -10 148 -10
175 2 183 11 7 11 9 -3 9 -15 0 -18 -9 -17 -62z"/>
<path d="M2654 1789 c27 -30 52 -56 54 -59 11 -11 -12 27 -35 57 -13 18 -34
38 -46 44 -13 7 -1 -10 27 -42z"/>
<path d="M2536 1633 c4 -93 10 -208 13 -258 l6 -90 37 35 c41 41 58 90 58 173
0 65 -25 187 -47 232 -18 35 -53 75 -65 75 -5 0 -6 -74 -2 -167z m91 -108 c3
-54 1 -93 -9 -119 -22 -66 -33 -53 -32 36 1 46 -4 89 -9 96 -8 10 -7 16 2 22
8 5 10 13 5 21 -9 15 -13 99 -6 113 11 20 44 -93 49 -169z"/>
<path d="M2696 1665 c3 -11 11 -55 16 -98 9 -66 8 -84 -7 -125 -10 -26 -28
-60 -40 -77 -35 -49 -41 -62 -16 -41 12 11 36 48 53 83 29 60 30 67 24 139 -4
42 -14 91 -22 108 -8 17 -12 22 -8 11z"/>
<path d="M2432 1218 c-2 -43 -1 -46 21 -40 17 5 18 7 5 10 -11 2 -18 16 -21
40 -3 34 -4 33 -5 -10z"/>
<path d="M3720 1911 c0 -5 9 -7 20 -4 11 3 20 7 20 9 0 2 -9 4 -20 4 -11 0
-20 -4 -20 -9z"/>
<path d="M3713 1845 c0 -27 2 -38 4 -22 2 15 2 37 0 50 -2 12 -4 0 -4 -28z"/>
<path d="M4112 1855 c0 -16 2 -22 5 -12 2 9 2 23 0 30 -3 6 -5 -1 -5 -18z"/>
<path d="M4042 1810 c0 -19 2 -27 5 -17 2 9 2 25 0 35 -3 9 -5 1 -5 -18z"/>
<path d="M3695 1710 c-4 -45 -5 -83 -2 -86 2 -3 8 32 11 77 4 44 5 83 3 85 -3
3 -8 -31 -12 -76z"/>
<path d="M3861 1664 c0 -11 3 -14 6 -6 3 7 2 16 -1 19 -3 4 -6 -2 -5 -13z"/>
<path d="M3870 1635 c0 -5 5 -17 10 -25 5 -8 10 -10 10 -5 0 6 -5 17 -10 25
-5 8 -10 11 -10 5z"/>
<path d="M3683 1575 c0 -22 2 -30 4 -17 2 12 2 30 0 40 -3 9 -5 -1 -4 -23z"/>
<path d="M3900 1555 c0 -5 5 -17 10 -25 5 -8 10 -10 10 -5 0 6 -5 17 -10 25
-5 8 -10 11 -10 5z"/>
<path d="M3673 1495 c0 -22 2 -30 4 -17 2 12 2 30 0 40 -3 9 -5 -1 -4 -23z"/>
<path d="M3663 1395 c0 -22 2 -30 4 -17 2 12 2 30 0 40 -3 9 -5 -1 -4 -23z"/>
<path d="M3915 1357 c7 -36 46 -139 50 -135 2 2 -10 39 -26 83 -16 44 -27 67
-24 52z"/>
<path d="M3641 1209 c-1 -11 9 -18 29 -21 25 -4 30 -1 29 16 0 12 -3 15 -6 9
-2 -7 -13 -13 -23 -13 -10 0 -21 6 -23 13 -4 7 -6 6 -6 -4z"/>
<path d="M3360 1685 c0 -10 29 -24 34 -17 3 6 -3 12 -14 15 -11 3 -20 4 -20 2z"/>
<path d="M3345 1650 c3 -5 11 -10 16 -10 6 0 7 5 4 10 -3 6 -11 10 -16 10 -6
0 -7 -4 -4 -10z"/>
<path d="M4256 1942 c-3 -5 -10 -41 -16 -78 -15 -107 -120 -727 -126 -746 -3
-12 0 -18 10 -18 10 0 16 -9 16 -25 0 -14 3 -25 8 -26 51 -4 69 -12 85 -34 10
-14 23 -25 29 -25 6 0 3 9 -7 20 -18 19 -17 20 3 20 15 0 22 9 27 32 7 30 8
31 21 13 8 -10 14 -15 14 -9 0 5 -7 17 -15 27 -7 11 -11 25 -8 33 4 12 8 11
19 -3 7 -10 14 -13 14 -7 0 6 -7 17 -15 24 -17 14 -20 40 -5 40 6 0 10 -4 10
-10 0 -5 5 -10 12 -10 6 0 4 7 -5 18 -23 26 -23 50 0 31 15 -13 15 -12 4 8 -9
18 -10 59 -2 102 1 2 7 -1 14 -7 7 -6 18 -7 26 -3 9 6 10 11 2 15 -20 12 -13
28 8 17 10 -6 21 -8 24 -5 3 3 15 3 26 -1 26 -8 27 -42 6 -170 -18 -111 -18
-105 0 -105 11 0 15 -8 13 -27 -3 -25 1 -28 47 -39 78 -19 95 -17 95 7 0 19 2
20 17 8 13 -11 13 -9 -3 15 -13 20 -15 31 -7 33 7 3 9 12 6 21 -6 15 -5 16 12
2 19 -15 19 -14 2 13 -11 17 -15 33 -9 42 6 11 17 -6 40 -63 20 -50 45 -90 68
-112 21 -19 34 -29 30 -22 -13 22 24 13 50 -13 14 -14 30 -25 36 -25 7 0 3 6
-8 14 -29 22 -7 33 27 13 17 -9 36 -17 42 -17 7 1 1 7 -12 14 -23 13 -23 13
21 35 49 23 68 26 68 11 0 -5 -7 -10 -16 -10 -8 0 -12 -4 -9 -10 4 -6 13 -5
25 3 17 10 18 14 6 25 -11 12 -7 20 26 53 32 31 43 37 54 28 10 -8 14 -8 14 0
0 6 -4 11 -10 11 -5 0 -10 7 -10 16 0 8 4 13 9 10 5 -3 12 10 15 29 4 19 12
35 18 35 6 0 8 -10 4 -24 -3 -14 -1 -26 5 -28 6 -2 13 -24 16 -48 8 -59 34
-110 80 -155 42 -40 121 -95 137 -95 6 1 -2 8 -17 16 -35 19 -30 28 7 14 15
-5 42 -10 59 -10 18 -1 43 -7 57 -15 14 -8 34 -14 45 -14 11 1 5 5 -15 11
l-35 10 43 19 c24 11 49 16 55 12 5 -3 7 -2 4 3 -3 5 3 20 13 34 15 20 20 22
34 11 20 -17 21 -8 2 12 -9 9 -11 19 -5 28 8 12 10 12 18 -1 6 -8 13 -11 18
-6 4 4 0 12 -10 17 -9 6 -17 17 -17 26 0 14 3 13 22 -3 l22 -19 -17 27 c-19
31 -22 53 -6 42 8 -5 8 -1 0 14 -7 13 -7 22 -1 24 6 2 6 16 1 38 -5 19 -14 63
-20 97 -12 77 -54 144 -145 232 -36 35 -66 69 -66 75 1 6 9 1 19 -11 11 -14
30 -23 46 -23 25 0 26 2 14 18 -10 12 -8 12 10 -3 13 -11 29 -32 37 -48 16
-29 13 -30 79 13 17 11 36 23 43 26 14 7 16 50 2 59 -6 4 -5 13 2 24 10 16 6
27 -23 67 -55 77 -104 106 -188 112 -62 4 -77 2 -126 -23 -99 -48 -137 -126
-116 -241 14 -73 51 -129 116 -172 65 -43 131 -106 138 -131 8 -32 -22 -81
-50 -81 -43 0 -62 18 -79 75 -17 62 -14 61 -119 27 -66 -22 -94 -22 -87 -2 10
29 14 31 28 13 7 -10 14 -13 14 -7 0 6 -7 17 -15 24 -12 10 -13 16 -5 24 8 8
13 7 20 -4 6 -9 10 -10 10 -3 0 6 -4 15 -10 18 -5 3 -10 13 -10 22 0 13 3 13
18 2 14 -11 15 -11 5 1 -20 21 -17 61 3 53 15 -5 15 -3 -1 20 -16 26 -16 27 0
27 12 0 15 4 8 13 -5 6 -10 46 -12 87 -6 213 -74 330 -193 330 -92 0 -203 -84
-263 -199 l-24 -46 2 50 c2 33 7 49 15 47 14 -3 16 14 2 23 -5 3 -10 11 -10
16 0 6 5 7 11 3 9 -5 10 1 5 20 -4 18 -3 25 4 21 14 -9 13 18 -2 34 -7 6 -13
26 -13 44 0 31 -2 32 -68 50 -38 10 -71 16 -73 14 -3 -2 -17 -80 -31 -172
l-27 -167 -44 7 c-55 8 -72 14 -72 27 0 5 5 6 10 3 14 -9 12 8 -2 24 -11 11
-10 13 5 8 15 -6 16 -3 7 13 -13 24 -13 33 1 24 8 -5 8 -1 0 14 -15 29 -14 37
4 22 9 -8 15 -9 15 -2 0 6 -4 14 -10 17 -5 3 -10 13 -10 21 0 9 5 12 11 8 8
-4 8 -1 1 12 -12 22 -4 77 9 68 5 -3 9 -1 9 5 0 5 -4 13 -10 16 -5 3 -10 23
-10 44 0 38 0 38 -52 49 -29 6 -60 13 -69 17 -10 3 -20 2 -23 -3z m80 -33 c39
-10 45 -15 40 -33 -8 -32 -47 -319 -44 -322 8 -8 164 -32 170 -26 3 4 17 76
29 159 12 84 26 158 30 164 7 11 73 5 96 -9 9 -5 2 -66 -23 -232 -40 -261 -64
-440 -64 -490 0 -57 -9 -62 -68 -49 -60 14 -58 6 -38 145 8 54 16 118 19 141
l5 41 -86 16 c-47 9 -88 13 -91 10 -3 -3 -18 -76 -32 -162 -20 -123 -29 -156
-40 -153 -8 2 -31 6 -52 8 -21 3 -39 9 -42 12 -2 4 25 178 61 386 35 209 64
386 64 393 0 15 9 15 66 1z m715 -167 c50 -53 69 -120 69 -245 0 -172 -49
-305 -147 -398 -147 -141 -278 -106 -329 86 -29 108 -9 249 55 380 70 146 175
232 271 222 36 -4 51 -13 81 -45z m455 -49 c22 -11 54 -41 73 -67 l34 -48 -41
-41 -41 -41 -44 47 c-36 39 -49 47 -79 47 -44 0 -68 -21 -68 -60 0 -23 18 -48
89 -119 101 -102 138 -166 147 -257 8 -77 -14 -159 -53 -196 -111 -106 -339
-27 -386 132 -9 30 -15 55 -14 56 13 10 140 44 145 39 4 -3 14 -25 22 -48 11
-30 26 -48 53 -62 34 -18 39 -19 64 -5 37 21 57 77 48 136 -7 50 -63 122 -118
150 -40 21 -106 83 -123 115 -28 55 -10 150 35 187 62 49 101 63 172 58 26 -2
64 -12 85 -23z m-66 -199 c0 -8 -4 -14 -10 -14 -5 0 -10 2 -10 4 0 2 -3 12 -6
20 -5 12 -2 15 10 10 9 -3 16 -12 16 -20z m-1086 -160 c9 -24 7 -28 -9 -14
-17 14 -20 30 -6 30 5 0 12 -7 15 -16z"/>
<path d="M4301 1844 c0 -11 3 -14 6 -6 3 7 2 16 -1 19 -3 4 -6 -2 -5 -13z"/>
<path d="M4286 1769 c-4 -28 -5 -53 -3 -56 3 -2 8 19 12 47 4 28 5 53 2 56 -2
3 -7 -19 -11 -47z"/>
<path d="M4597 1814 c7 -3 10 -20 7 -42 -3 -31 -2 -33 5 -12 15 41 13 60 -6
59 -10 0 -13 -3 -6 -5z"/>
<path d="M4561 1704 c0 -11 3 -14 6 -6 3 7 2 16 -1 19 -3 4 -6 -2 -5 -13z"/>
<path d="M4272 1680 c0 -14 2 -19 5 -12 2 6 2 18 0 25 -3 6 -5 1 -5 -13z"/>
<path d="M4262 1615 c0 -16 2 -22 5 -12 2 9 2 23 0 30 -3 6 -5 -1 -5 -18z"/>
<path d="M4368 1493 c6 -2 18 -2 25 0 6 3 1 5 -13 5 -14 0 -19 -2 -12 -5z"/>
<path d="M4418 1483 c6 -2 18 -2 25 0 6 3 1 5 -13 5 -14 0 -19 -2 -12 -5z"/>
<path d="M4232 1390 c0 -14 2 -19 5 -12 2 6 2 18 0 25 -3 6 -5 1 -5 -13z"/>
<path d="M4222 1340 c0 -14 2 -19 5 -12 2 6 2 18 0 25 -3 6 -5 1 -5 -13z"/>
<path d="M4511 1324 c0 -11 3 -14 6 -6 3 7 2 16 -1 19 -3 4 -6 -2 -5 -13z"/>
<path d="M4205 1253 c-3 -27 -8 -59 -11 -73 -4 -22 -3 -22 5 -5 10 23 25 125
18 125 -3 0 -8 -21 -12 -47z"/>
<path d="M4502 1255 c0 -16 2 -22 5 -12 2 9 2 23 0 30 -3 6 -5 -1 -5 -18z"/>
<path d="M4493 1170 c0 -25 2 -35 4 -22 2 12 2 32 0 45 -2 12 -4 2 -4 -23z"/>
<path d="M4221 1164 c0 -11 3 -14 6 -6 3 7 2 16 -1 19 -3 4 -6 -2 -5 -13z"/>
<path d="M4527 1125 c-4 -8 -2 -17 3 -20 6 -4 10 3 10 14 0 25 -6 27 -13 6z"/>
<path d="M5035 1716 c10 -14 19 -26 22 -26 7 0 -17 39 -28 46 -6 3 -3 -5 6
-20z"/>
<path d="M4789 1673 c-13 -16 -12 -17 4 -4 9 7 17 15 17 17 0 8 -8 3 -21 -13z"/>
<path d="M4907 1674 c-40 -21 -103 -124 -129 -208 -29 -95 -32 -258 -5 -299
28 -42 75 -38 120 12 40 45 57 74 89 158 20 49 23 77 23 186 0 123 -1 130 -24
148 -28 23 -37 23 -74 3z m78 -74 c3 -5 1 -10 -6 -10 -10 0 -10 -3 -1 -12 33
-33 1 -216 -54 -319 -58 -106 -132 -132 -126 -44 1 19 -1 25 -6 17 -5 -8 -8 3
-8 28 1 31 4 39 16 35 12 -5 13 -4 3 6 -7 7 -13 19 -13 27 0 8 5 10 13 6 10
-6 10 -4 0 7 -18 18 -16 32 2 25 8 -3 15 -1 15 4 0 6 -4 10 -10 10 -5 0 -10 7
-10 15 0 18 16 20 23 3 4 -10 6 -10 6 -1 1 6 -3 15 -9 18 -12 8 -13 25 -1 44
8 13 12 13 28 1 15 -12 16 -12 6 0 -7 8 -13 21 -13 30 1 13 3 12 14 -2 7 -10
16 -15 19 -12 3 4 0 13 -8 21 -17 17 -10 36 28 72 24 22 47 22 47 -1 0 -7 -6
-6 -15 2 -9 7 -15 8 -15 2 0 -16 28 -22 40 -8 8 10 7 15 -5 20 -8 3 -15 10
-15 16 0 13 47 13 55 0z"/>
<path d="M4896 1545 c4 -8 11 -15 16 -15 6 0 5 6 -2 15 -7 8 -14 15 -16 15 -2
0 -1 -7 2 -15z"/>
<path d="M4875 1520 c3 -5 11 -10 16 -10 6 0 7 5 4 10 -3 6 -11 10 -16 10 -6
0 -7 -4 -4 -10z"/>
<path d="M4827 1439 c7 -7 15 -10 18 -7 3 3 -2 9 -12 12 -14 6 -15 5 -6 -5z"/>
<path d="M4720 1559 c-17 -33 -30 -64 -28 -68 2 -4 17 23 35 61 40 84 34 90
-7 7z"/>
<path d="M4675 1440 c-4 -17 -5 -34 -2 -36 2 -3 7 10 11 27 8 42 0 50 -9 9z"/>
<path d="M5076 1410 c-13 -88 -44 -175 -82 -232 -21 -31 -27 -45 -15 -34 48
43 121 250 108 305 -2 9 -7 -9 -11 -39z"/>
<path d="M4662 1314 c-2 -63 22 -183 34 -171 2 2 -1 17 -7 33 -6 16 -15 70
-19 119 l-7 90 -1 -71z"/>
<path d="M4730 1086 c0 -2 8 -10 18 -17 15 -13 16 -12 3 4 -13 16 -21 21 -21
13z"/>
<path d="M5306 1639 c-35 -28 -56 -71 -55 -111 1 -31 2 -31 8 8 9 54 31 87 73
107 18 9 26 17 17 17 -9 0 -28 -9 -43 -21z"/>
<path d="M5505 1620 c10 -11 20 -20 23 -20 3 0 -3 9 -13 20 -10 11 -20 20 -23
20 -3 0 3 -9 13 -20z"/>
<path d="M5546 1575 c-11 -8 -15 -15 -9 -15 6 0 16 7 23 15 16 19 11 19 -14 0z"/>
<path d="M5260 1481 c0 -6 4 -13 10 -16 6 -3 7 1 4 9 -7 18 -14 21 -14 7z"/>
<path d="M5493 1178 c0 -61 -18 -103 -57 -128 -17 -11 -25 -20 -18 -20 22 0
69 54 80 92 6 21 6 51 2 70 -8 31 -8 30 -7 -14z"/>
<path d="M5182 1058 c23 -41 93 -106 103 -96 4 3 -10 16 -30 28 -19 12 -47 42
-61 66 -33 56 -43 58 -12 2z"/>
<path d="M5480 969 c-22 -18 -22 -19 -3 -10 12 6 25 16 28 21 9 15 3 12 -25
-11z"/>
<path d="M5308 953 c7 -3 16 -2 19 1 4 3 -2 6 -13 5 -11 0 -14 -3 -6 -6z"/>
<path d="M4406 1765 c4 -8 8 -15 10 -15 2 0 4 7 4 15 0 8 -4 15 -10 15 -5 0
-7 -7 -4 -15z"/>
<path d="M5600 1440 c0 -7 24 -20 36 -20 13 0 1 19 -16 23 -11 3 -20 2 -20 -3z"/>
<path d="M5570 1426 c0 -3 9 -10 20 -16 11 -6 20 -8 20 -6 0 3 -9 10 -20 16
-11 6 -20 8 -20 6z"/>
<path d="M5545 1390 c3 -5 8 -10 11 -10 2 0 4 5 4 10 0 6 -5 10 -11 10 -5 0
-7 -4 -4 -10z"/>
<path d="M4400 1321 c0 -9 30 -24 36 -18 2 1 -6 8 -16 15 -11 7 -20 8 -20 3z"/>
<path d="M4341 1254 c0 -11 3 -14 6 -6 3 7 2 16 -1 19 -3 4 -6 -2 -5 -13z"/>
<path d="M2780 1200 c0 -5 5 -10 10 -10 6 0 10 5 10 10 0 6 -4 10 -10 10 -5 0
-10 -4 -10 -10z"/>
<path d="M2080 1181 c0 -5 5 -13 10 -16 6 -3 10 -2 10 4 0 5 -4 13 -10 16 -5
3 -10 2 -10 -4z"/>
<path d="M1263 1086 c7 -14 13 -23 15 -21 7 6 -9 45 -18 45 -4 0 -3 -11 3 -24z"/>
<path d="M2617 1079 c7 -7 15 -10 18 -7 3 3 -2 9 -12 12 -14 6 -15 5 -6 -5z"/>
<path d="M3620 1060 c0 -5 5 -10 11 -10 5 0 7 5 4 10 -3 6 -8 10 -11 10 -2 0
-4 -4 -4 -10z"/>
<path d="M3666 1055 c4 -8 11 -15 16 -15 6 0 5 6 -2 15 -7 8 -14 15 -16 15 -2
0 -1 -7 2 -15z"/>
<path d="M2000 1052 c0 -12 19 -26 26 -19 2 2 -2 10 -11 17 -9 8 -15 8 -15 2z"/>
<path d="M3755 1050 c3 -5 10 -10 16 -10 5 0 9 5 9 10 0 6 -7 10 -16 10 -8 0
-12 -4 -9 -10z"/>
<path d="M3986 1045 c4 -8 11 -15 16 -15 6 0 5 6 -2 15 -7 8 -14 15 -16 15 -2
0 -1 -7 2 -15z"/>
<path d="M1960 1040 c0 -5 5 -10 11 -10 5 0 7 5 4 10 -3 6 -8 10 -11 10 -2 0
-4 -4 -4 -10z"/>
<path d="M2050 1040 c0 -6 7 -10 15 -10 8 0 15 2 15 4 0 2 -7 6 -15 10 -8 3
-15 1 -15 -4z"/>
<path d="M2260 1040 c0 -6 7 -10 15 -10 8 0 15 2 15 4 0 2 -7 6 -15 10 -8 3
-15 1 -15 -4z"/>
<path d="M4300 1030 c0 -5 5 -10 11 -10 5 0 7 5 4 10 -3 6 -8 10 -11 10 -2 0
-4 -4 -4 -10z"/>
<path d="M2458 1023 c6 -2 18 -2 25 0 6 3 1 5 -13 5 -14 0 -19 -2 -12 -5z"/>
<path d="M4182 1015 c9 -10 21 -16 28 -13 7 2 -1 10 -16 17 -27 12 -28 11 -12
-4z"/>
<path d="M4286 1005 c4 -8 11 -15 16 -15 6 0 5 6 -2 15 -7 8 -14 15 -16 15 -2
0 -1 -7 2 -15z"/>
<path d="M4990 1000 c0 -13 18 -22 24 -11 3 5 -1 11 -9 15 -8 3 -15 1 -15 -4z"/>
<path d="M1730 970 c0 -6 7 -10 15 -10 8 0 15 2 15 4 0 2 -7 6 -15 10 -8 3
-15 1 -15 -4z"/>
<path d="M4510 971 c0 -9 30 -24 36 -18 2 1 -6 8 -16 15 -11 7 -20 8 -20 3z"/>
<path d="M4570 960 c0 -5 5 -10 11 -10 5 0 7 5 4 10 -3 6 -8 10 -11 10 -2 0
-4 -4 -4 -10z"/>
<path d="M4600 960 c0 -5 5 -10 11 -10 5 0 7 5 4 10 -3 6 -8 10 -11 10 -2 0
-4 -4 -4 -10z"/>
<path d="M1580 950 c8 -5 22 -9 30 -9 10 0 8 3 -5 9 -27 12 -43 12 -25 0z"/>
<path d="M1700 950 c0 -5 5 -10 10 -10 6 0 10 5 10 10 0 6 -4 10 -10 10 -5 0
-10 -4 -10 -10z"/>
<path d="M4900 941 c0 -5 7 -11 15 -15 8 -3 15 -1 15 3 0 5 -7 11 -15 15 -8 3
-15 1 -15 -3z"/>
<path d="M5554 861 c0 -15 3 -17 13 -9 7 6 10 14 7 19 -9 15 -20 10 -20 -10z"/>
<path d="M5500 835 c0 -10 29 -24 34 -17 3 6 -3 12 -14 15 -11 3 -20 4 -20 2z"/>
<path d="M5365 800 c11 -5 27 -9 35 -9 9 0 8 4 -5 9 -11 5 -27 9 -35 9 -9 0
-8 -4 5 -9z"/>
<path d="M4790 695 c0 -6 130 -85 141 -85 6 0 9 5 7 12 -4 10 -148 82 -148 73z"/>
<path d="M1013 602 c-89 -38 -110 -50 -103 -62 8 -12 21 -8 82 25 185 100 190
108 21 37z"/>
<path d="M4607 568 c67 -70 144 -152 211 -228 l31 -35 21 21 21 21 -113 99
c-184 162 -222 194 -233 194 -5 0 22 -33 62 -72z"/>
<path d="M1648 535 c-30 -49 -33 -60 -18 -60 6 0 21 24 35 53 30 64 20 68 -17
7z"/>
<path d="M4450 495 c0 -4 15 -33 34 -64 18 -31 43 -75 55 -99 20 -40 40 -50
48 -26 2 5 -28 52 -67 103 -38 52 -70 90 -70 86z"/>
<path d="M1077 376 c-129 -87 -123 -82 -107 -101 10 -12 27 -2 116 76 142 125
141 126 -9 25z"/>
<path d="M4947 253 c-8 -7 31 -53 45 -53 15 0 8 27 -10 43 -21 19 -26 20 -35
10z"/>
</g>
</svg>
